<svg width='100px' height='100px' xmlns="http://www.w3.org/2000/svg" xmlns:xlink="http://www.w3.org/1999/xlink" version="1.1" x="0px" y="0px" viewBox="0 0 1000 1250" style="enable-background:new 0 0 1000 1000;" xml:space="preserve"><g><g><path fill="darkgreen" d="M127.7,760.4H81.4c-11.5,0-20.8-9.3-20.8-20.8V270.8c0-11.5,9.3-20.8,20.8-20.8h91.9c11.5,0,20.8,9.3,20.8,20.8    s-9.3,20.8-20.8,20.8h-71.1v427.1h25.5c11.5,0,20.8,9.3,20.8,20.8S139.2,760.4,127.7,760.4z"/></g><g><path fill="darkgreen" d="M123,291.7c-11.5,0-20.8-9.3-20.8-20.8v-250C102.2,9.3,111.5,0,123,0s20.8,9.3,20.8,20.8v250    C143.9,282.3,134.6,291.7,123,291.7z"/></g><g><path fill="darkgreen" d="M883,406.2c-11.5,0-20.8-9.3-20.8-20.8c0-189.4-154-343.5-343.3-343.8C329.5,41.9,175.6,196,175.6,385.4    c0,11.5-9.3,20.8-20.8,20.8s-20.8-9.3-20.8-20.8C134,173.2,306.4,0.4,518.6,0l0,0l0,0l0,0c0.3,0,0.6,0,0.9,0    c212.1,0.5,384.6,173.2,384.6,385.4C903.9,396.9,894.5,406.2,883,406.2z"/></g><g><path fill="darkgreen" d="M612.6,1000H425.1c-3.7,0-7.3-1-10.5-2.9l-302.1-177c-6.9-4-10.8-11.6-10.2-19.5l31.3-416.7c0.9-11.5,10.7-20,22.3-19.2    c11.5,0.9,20.1,10.9,19.2,22.3l-30.3,403.7l286,167.7H607l289.7-167.7l-34-403.5c-1-11.5,7.5-21.5,19-22.5s21.5,7.6,22.5,19    l35.2,416.7c0.7,8-3.3,15.7-10.3,19.8l-306,177.1C619.9,999,616.3,1000,612.6,1000z"/></g><g><path fill="darkgreen" d="M880.5,364.6H157.2c-11.5,0-20.8-9.3-20.8-20.8s9.3-20.8,20.8-20.8h723.4c11.5,0,20.8,9.3,20.8,20.8    S892,364.6,880.5,364.6z"/></g><g><path fill="darkgreen" d="M612.6,1000c-11.5,0-20.8-9.3-20.8-20.8V541.7c0-9,5.8-17,14.3-19.8c1.2-0.4,113.7-37.5,194.7-68l-3.2-26.8H236l-2.1,26.6    c81.3,30.6,196.4,67.8,197.6,68.2c8.6,2.8,14.4,10.8,14.4,19.8v437.5c0,11.5-9.3,20.8-20.8,20.8s-20.8-9.3-20.8-20.8V556.8    c-36.4-11.9-133.7-44.2-199.9-69.8c-8.6-3.3-14-11.9-13.3-21.1l4.9-61.3c0.9-10.8,9.9-19.2,20.8-19.2h599.3    c10.5,0,19.4,7.9,20.7,18.4l7.3,61.3c1.1,9.5-4.3,18.5-13.2,21.9c-66,25.5-161.6,57.7-197.4,69.7v422.5    C633.5,990.7,624.1,1000,612.6,1000z"/></g><g><path fill="darkgreen" d="M362.6,963.4c-11.5,0-20.8-9.3-20.8-20.8v-57.1c0-144.3-79.5-275.3-207.6-342c-10.2-5.3-14.2-17.9-8.9-28.1    c5.3-10.2,17.9-14.2,28.1-8.9c141.9,73.9,230,219.1,230,379v57.1C383.5,954,374.1,963.4,362.6,963.4z"/></g><g><path fill="darkgreen" d="M675.1,963.8c-11.5,0-20.8-9.3-20.8-20.8v-57.6c0-157.6,86-296.6,230-371.6c10.2-5.3,22.8-1.3,28.1,8.9s1.4,22.8-8.9,28.1    C773.6,618.5,696,743.6,696,885.4V943C696,954.5,686.6,963.8,675.1,963.8z"/></g><g><path fill="darkgreen" d="M681.2,245.7c-5.9,0-11.8-2.5-16-7.4l-54.7-65.1c-7.4-8.8-6.3-22,2.6-29.4c8.8-7.4,22-6.3,29.3,2.5l54.7,65.1    c7.4,8.8,6.3,22-2.6,29.4C690.7,244.1,685.9,245.7,681.2,245.7z"/></g><g><path fill="darkgreen" d="M581.4,270.8c-11.5,0-20.8-9.3-20.8-20.8v-52.1c0-11.5,9.3-20.8,20.8-20.8s20.8,9.3,20.8,20.8V250    C602.2,261.5,592.9,270.8,581.4,270.8z"/></g></g><text x="0" y="1015" fill="#000000" font-size="5px" font-weight="bold" font-family="'Helvetica Neue', Helvetica, Arial-Unicode, Arial, Sans-serif">Created by Linker</text><text x="0" y="1020" fill="#000000" font-size="5px" font-weight="bold" font-family="'Helvetica Neue', Helvetica, Arial-Unicode, Arial, Sans-serif">from the Noun Project</text></svg>