<svg xmlns="http://www.w3.org/2000/svg" xmlns:xlink="http://www.w3.org/1999/xlink" version="1.1" x="0px" y="0px" viewBox="0 0 1000 1250" style="enable-background:new 0 0 1000 1000;" xml:space="preserve"><g><g><path fill='#faee7c' d="M682.6,698.4c-52.6,0-115.5-7.5-141.8-24.7c-9.6-6.3-12.3-19.2-6.1-28.8c6.3-9.6,19.2-12.3,28.8-6.1    c13.8,9,65.1,18.3,123.8,17.9c11.3-0.6,20.9,9.1,21,20.6s-9.1,20.9-20.6,21C686.1,698.4,684.4,698.4,682.6,698.4z"/></g><g><path fill='#faee7c' d="M317.6,698.4c-1.7,0-3.5,0-5.2,0c-11.5-0.1-20.7-9.5-20.6-21c0.1-11.4,9.4-20.6,20.8-20.6c0.1,0,0.1,0,0.2,0    c58.8,0.5,110-8.9,123.8-17.9c9.6-6.3,22.6-3.6,28.8,6.1c6.3,9.6,3.6,22.5-6.1,28.8C433.1,690.9,370.2,698.4,317.6,698.4z"/></g><g><path fill='#faee7c' d="M541.8,385.4h-83.3c-11.5,0-20.8-9.3-20.8-20.8v-52.1c0-11.5,9.3-20.8,20.8-20.8s20.8,9.3,20.8,20.8v31.2H521v-302h-41.7    v166.7c0,11.5-9.3,20.8-20.8,20.8s-20.8-9.3-20.8-20.8V20.8C437.7,9.3,447,0,458.5,0h83.3c11.5,0,20.8,9.3,20.8,20.8v343.8    C562.6,376.1,553.3,385.4,541.8,385.4z"/></g><g><path fill='#faee7c' d="M552.2,729.2H448c-11.5,0-20.8-9.3-20.8-20.8v-54.7c0-39.4,32-70.3,72.9-70.3s72.9,30.9,72.9,70.3v54.7    C573,719.8,563.7,729.2,552.2,729.2z M468.9,687.5h62.5v-33.9c0-16.6-13.1-28.6-31.2-28.6c-18.1,0-31.2,12-31.2,28.6v33.9H468.9z"/></g><g><path fill='#faee7c' d="M323,937.5c-13.9,0-27-5.4-36.8-15.3c-9.8-9.8-15.3-22.9-15.3-36.8c0-13.9,5.4-27,15.3-36.8c9.8-9.8,22.9-15.3,36.8-15.3    s27,5.4,36.8,15.3c9.8,9.8,15.3,22.9,15.3,36.8c0,13.9-5.4,27-15.3,36.8l0,0l0,0C350,932.1,336.9,937.5,323,937.5z M323,875    c-1.6,0-4.7,0.4-7.4,3.1c-2.7,2.7-3.1,5.8-3.1,7.4c0,1.6,0.4,4.7,3.1,7.4s5.8,3.1,7.4,3.1s4.7-0.4,7.4-3.1l0,0    c2.7-2.6,3.1-5.7,3.1-7.4c0-1.6-0.4-4.7-3.1-7.4C327.7,875.4,324.6,875,323,875z"/></g><g><path fill='#faee7c' d="M677.2,937.5c-13.9,0-27-5.4-36.8-15.3c-9.8-9.8-15.3-22.9-15.3-36.8c0-13.9,5.4-27,15.3-36.8    c9.8-9.8,22.9-15.3,36.8-15.3s27,5.4,36.8,15.3l0,0l0,0c9.8,9.8,15.3,22.9,15.3,36.8c0,13.9-5.4,27-15.3,36.8    C704.2,932.1,691.1,937.5,677.2,937.5z M677.2,875c-1.6,0-4.7,0.4-7.4,3.1c-2.7,2.7-3.1,5.8-3.1,7.4c0,1.6,0.4,4.7,3.1,7.4    c2.7,2.7,5.8,3.1,7.4,3.1s4.7-0.4,7.4-3.1c2.7-2.7,3.1-5.8,3.1-7.4c0-1.6-0.4-4.7-3.1-7.4l0,0C681.9,875.4,678.8,875,677.2,875z"/></g><g><path fill='#faee7c' d="M645.9,906.2H354.3c-11.5,0-20.8-9.3-20.8-20.8s9.3-20.8,20.8-20.8H646c11.5,0,20.8,9.3,20.8,20.8    S657.4,906.2,645.9,906.2z"/></g><g><path fill='#faee7c' d="M342,876.8c-4,0-8-1.1-11.6-3.5c-9.6-6.4-12.1-19.3-5.7-28.9l106-158c6.4-9.6,19.3-12.1,28.9-5.7    c9.6,6.4,12.1,19.3,5.7,28.9l-106,158C355.4,873.6,348.8,876.8,342,876.8z"/></g><g><path fill='#faee7c' d="M658.2,876.8c-6.7,0-13.3-3.2-17.3-9.2l-106-158c-6.4-9.6-3.9-22.5,5.7-28.9c9.5-6.4,22.5-3.9,28.9,5.7l106,158    c6.4,9.6,3.9,22.5-5.7,28.9C666.2,875.6,662.1,876.8,658.2,876.8z"/></g><g><path fill='#faee7c' d="M500.1,906.2c-11.5,0-20.8-9.3-20.8-20.8V708.3c0-11.5,9.3-20.8,20.8-20.8s20.8,9.3,20.8,20.8v177.1    C520.9,896.9,511.6,906.2,500.1,906.2z"/></g><g><path fill='#faee7c' d="M437.6,895.8c-11.5,0-20.8-9.3-20.8-20.8V718.8c0-11.5,9.3-20.8,20.8-20.8s20.8,9.3,20.8,20.8V875    C458.4,886.5,449.1,895.8,437.6,895.8z"/></g><g><path fill='#faee7c' d="M562.6,906.2c-11.5,0-20.8-9.3-20.8-20.8V718.8c0-11.5,9.3-20.8,20.8-20.8s20.8,9.3,20.8,20.8v166.7    C583.4,896.9,574.1,906.2,562.6,906.2z"/></g><g><path fill='#faee7c' d="M625.1,906.2c-11.5,0-20.8-9.3-20.8-20.8v-72.9c0-11.5,9.3-20.8,20.8-20.8s20.8,9.3,20.8,20.8v72.9    C645.9,896.9,636.6,906.2,625.1,906.2z"/></g><g><path fill='#faee7c' d="M375.1,906.2c-11.5,0-20.8-9.3-20.8-20.8v-72.9c0-11.5,9.3-20.8,20.8-20.8s20.8,9.3,20.8,20.8v72.9    C395.9,896.9,386.6,906.2,375.1,906.2z"/></g><g><path fill='#faee7c' d="M318.6,613.9c-47.2,0-92.9-8.4-112.8-28.6c-13.9-14.1-20.4-32.5-18.7-53.1c3.1-38.3,33.9-76.9,63-98.2    c49.4-36.1,162.1-40.8,201.7,2.8c15,16.5,16.3,54.3,16.2,69.7c1.8,67-14.7,78-20.1,81.5C424.1,603.8,370.4,613.9,318.6,613.9z     M356.6,446.9c-30.3,0-63.1,7-81.9,20.7c-25,18.3-44.4,46.8-46.1,67.9c-0.7,8.6,1.5,15.1,6.8,20.5c21.4,21.7,148.6,20.3,186.9-1.2    c2.7-7.6,4.5-29.1,4-48c0.1-17.6-2.6-37.3-5.7-42.4C409.6,452.7,384.1,446.9,356.6,446.9z M421.6,556.5L421.6,556.5L421.6,556.5z     M421,464.8L421,464.8L421,464.8L421,464.8z"/></g><g><path fill='#faee7c' d="M681,613.6c-3.2,0-6.2,0-9-0.1c-41.3-0.9-94.8-8-121.2-25.5c-5.4-3.6-21.9-14.5-20.1-82.3c-0.1-14.8,1.2-52.5,16.2-69l0,0    c39.6-43.6,152.2-39,201.7-2.8c29.1,21.3,59.9,59.9,63,98.2c1.7,20.7-4.8,39-18.7,53.1C769.2,609.3,715.9,613.6,681,613.6z     M576.3,554.9c38.3,21.5,165.5,22.9,186.9,1.2c5.3-5.4,7.5-11.9,6.8-20.5c-1.7-21.1-21.1-49.7-46.1-67.9    c-35.8-26.2-122.7-27.9-146-3.1c-3.1,5.1-5.8,25.1-5.7,41.7C571.8,525.7,573.7,547.3,576.3,554.9z M577,556.5L577,556.5L577,556.5    z M577.7,464.8L577.7,464.8L577.7,464.8z M562.3,450.8L562.3,450.8L562.3,450.8z"/></g><g><path fill='#faee7c' d="M699.3,884.2c-3.6,0-7.1-0.9-10.4-2.8c-9.9-5.8-13.3-18.5-7.6-28.5l80.3-138.5c5.8-9.9,18.5-13.3,28.5-7.6    c9.9,5.8,13.3,18.5,7.6,28.5l-80.3,138.5C713.4,880.4,706.4,884.2,699.3,884.2z"/></g><g><path fill='#faee7c' d="M280.4,223.3c-5.1,0-10.1-1.8-14.1-5.5c-8.4-7.8-9-21-1.2-29.4c48.6-52.6,116.2-87.5,190.3-98.2    c11.4-1.6,22,6.3,23.6,17.6c1.6,11.4-6.3,22-17.6,23.6c-64.7,9.3-123.5,39.6-165.7,85.2C291.6,221,286,223.3,280.4,223.3z"/></g><g><path fill='#faee7c' d="M227.9,304.5c-2.7,0-5.5-0.5-8.1-1.7c-10.6-4.5-15.5-16.7-11.1-27.3c4.4-10.5,9.5-20.8,15.1-30.7    c5.7-10,18.4-13.6,28.4-7.9c10,5.7,13.5,18.4,7.9,28.4c-4.8,8.5-9.2,17.4-13,26.4C243.8,299.7,236.1,304.5,227.9,304.5z"/></g><g><path fill='#faee7c' d="M300.9,884.2c-7.2,0-14.2-3.7-18-10.4l-80.3-138.5c-5.8-10-2.4-22.7,7.6-28.5c9.9-5.8,22.7-2.4,28.5,7.6L319,852.9    c5.8,10,2.4,22.7-7.6,28.5C308.1,883.2,304.5,884.2,300.9,884.2z"/></g><g><path fill='#faee7c' d="M792.8,885c-10.2,0-19.2-7.5-20.6-18c-1.6-11.4,6.4-21.9,17.8-23.5c70.7-9.8,161.4-42.6,171.6-47.9    c10.2-5.3,22.8-1.4,28.1,8.9c5.3,10.2,1.3,22.8-8.9,28.1c-16.8,8.7-111.8,42.1-185.2,52.2C794.7,884.9,793.7,885,792.8,885z"/></g><g><path fill='#faee7c' d="M210.8,885c-1,0-1.9-0.1-2.9-0.2c-75.1-10.4-173.4-45.2-188.5-53c-10.2-5.3-14.2-17.9-8.9-28.1    c5.3-10.2,17.9-14.2,28.1-8.9c10,5.2,104,38.9,175,48.7c11.4,1.6,19.4,12.1,17.8,23.5C230,877.4,221,885,210.8,885z"/></g><g><path fill='#faee7c' d="M864.7,489.6c-7.9,0-15.4-4.5-18.9-12.1c-3.4-7.2-82.6-170.5-296.9-93.3c-10.8,3.9-22.8-1.7-26.7-12.5s1.7-22.8,12.5-26.7    c251.2-90.5,348,113,348.9,115.1c4.8,10.5,0.2,22.8-10.2,27.6C870.6,489,867.6,489.6,864.7,489.6z"/></g><g><path fill='#faee7c' d="M135.5,489.6c-2.9,0-5.9-0.6-8.7-1.9c-10.5-4.8-15-17.2-10.2-27.6c1-2.1,97.7-205.6,348.9-115.1    c10.8,3.9,16.4,15.8,12.5,26.7c-3.9,10.8-15.9,16.4-26.7,12.5c-215.6-77.7-293.7,86.2-296.9,93.3    C151,485.1,143.4,489.6,135.5,489.6z"/></g><g><path fill='#faee7c' d="M500.1,1000c-123.5,0-360.2-14.4-464-68.4c-28.2-14.7-54.6-51.4-20.6-143l99.3-322.9v-59.4    c0-195.9,146.8-360.5,341.4-382.9c11.4-1.3,21.8,6.9,23.1,18.3c1.3,11.4-6.9,21.8-18.3,23.1C287.2,84.7,156.4,231.5,156.4,406.2    v65.6L54.7,802.5c-8.6,23.1-25.8,78.4,0.6,92.1c96.6,50.3,325,63.7,444.8,63.7c119.7,0,348.1-13.4,444.7-63.7    c26.3-13.7,9.1-69,0.5-92.1l-0.4-1.1L843.4,471.8l0.5-55l-0.4-9.8c0-175.6-130.7-322.4-304-342.3c-11.4-1.3-19.6-11.6-18.3-23.1    c1.3-11.4,11.6-19.6,23.1-18.3c194.4,22.3,340.9,186.9,340.9,382.9l0.4,9.9l-0.4,49.5l99.5,322.9c34,91.7,7.6,128.4-20.5,143    C860.3,985.6,623.6,1000,500.1,1000z"/></g></g><text x="0" y="1015" fill="#000000" font-size="5px" font-weight="bold" font-family="'Helvetica Neue', Helvetica, Arial-Unicode, Arial, Sans-serif">Created by Linker</text><text x="0" y="1020" fill="#000000" font-size="5px" font-weight="bold" font-family="'Helvetica Neue', Helvetica, Arial-Unicode, Arial, Sans-serif">from the Noun Project</text></svg>