<svg height='100px' width='100px' xmlns="http://www.w3.org/2000/svg" xmlns:xlink="http://www.w3.org/1999/xlink" version="1.1" x="0px" y="0px" viewBox="0 0 59.79 75" enable-background="new 0 0 59.79 60" xml:space="preserve"><g><path fill='grey' d="M59.43,31.44C59.18,31.16,58.82,31,58.44,31h-1.62v-2h1.62c0.38,0,0.74-0.16,0.99-0.44s0.38-0.65,0.35-1.02   c-0.07-0.86-0.18-1.7-0.32-2.54h0.03l-0.25-1.21c-0.01-0.07-0.03-0.13-0.05-0.2c-0.13-0.58-0.27-1.16-0.43-1.73   c-0.07-0.24-0.15-0.48-0.22-0.73c-0.09-0.3-0.19-0.59-0.29-0.88c-0.07-0.2-0.13-0.41-0.2-0.61L57.81,19h-0.03   c-0.6-1.5-1.31-2.94-2.13-4.3c-0.05-0.16-0.13-0.3-0.24-0.41C50.07,5.71,40.55,0,29.9,0C19.25,0,9.72,5.71,4.39,14.28   c-0.12,0.11-0.2,0.26-0.25,0.42c-0.82,1.37-1.54,2.8-2.13,4.3H1.98l-0.24,0.66c-0.07,0.2-0.13,0.4-0.2,0.6   c-0.1,0.3-0.2,0.6-0.29,0.9c-0.07,0.24-0.15,0.48-0.22,0.72c-0.16,0.57-0.3,1.15-0.43,1.73c-0.01,0.06-0.03,0.12-0.05,0.19L0.3,25   h0.03C0.19,25.84,0.07,26.68,0,27.54c-0.03,0.37,0.1,0.75,0.36,1.02C0.62,28.84,0.98,29,1.35,29h1.47v2H1.35   c-0.37,0-0.74,0.16-0.99,0.43C0.11,31.71-0.02,32.08,0,32.46c0.07,0.86,0.18,1.7,0.32,2.54H0.3l0.25,1.21   c0.01,0.06,0.03,0.12,0.04,0.17c0.13,0.59,0.27,1.18,0.44,1.76c0.06,0.22,0.14,0.44,0.2,0.66c0.1,0.32,0.2,0.65,0.31,0.96   c0.07,0.19,0.12,0.39,0.19,0.58L1.98,41h0.03c0.41,1.03,0.88,2.03,1.4,3h-0.1l0.92,1.52c0.88,1.44,1.89,2.84,3.02,4.14L7.54,50   h0.07c1.57,1.74,3.34,3.3,5.27,4.64c0.12,0.14,0.27,0.24,0.45,0.3C18.1,58.13,23.81,60,29.9,60s11.79-1.87,16.57-5.06   c0.18-0.06,0.33-0.16,0.45-0.3c1.93-1.34,3.7-2.9,5.27-4.64h0.07l0.3-0.34c1.13-1.3,2.15-2.69,3.02-4.14L56.49,44h-0.1   c0.52-0.97,0.99-1.97,1.4-3h0.03l0.24-0.66c0.07-0.2,0.13-0.41,0.2-0.61c0.1-0.29,0.2-0.59,0.29-0.88   c0.07-0.24,0.15-0.48,0.22-0.73c0.16-0.57,0.3-1.14,0.43-1.73c0.01-0.07,0.03-0.13,0.05-0.2L59.5,35h-0.03   c0.14-0.84,0.25-1.68,0.32-2.54C59.82,32.09,59.69,31.71,59.43,31.44z M2.06,27c0.07-0.68,0.18-1.34,0.3-2H9.9c0.55,0,1-0.45,1-1   s-0.45-1-1-1H2.8c0.03-0.11,0.06-0.21,0.09-0.32c0.11-0.41,0.24-0.82,0.37-1.23C3.3,21.3,3.35,21.15,3.4,21h10.5c0.55,0,1-0.45,1-1   s-0.45-1-1-1H4.18c0.45-1.03,0.95-2.04,1.51-3h5.21c0.55,0,1-0.45,1-1s-0.45-1-1-1H6.97C12.07,6.74,20.52,2,29.9,2   s17.82,4.74,22.93,12H47.9c-0.55,0-1,0.45-1,1s0.45,1,1,1h6.21c0.56,0.96,1.06,1.97,1.51,3H46.9c-0.55,0-1,0.45-1,1s0.45,1,1,1h9.5   c0.05,0.16,0.11,0.32,0.16,0.47c0.13,0.4,0.25,0.8,0.36,1.2c0.03,0.11,0.06,0.22,0.09,0.33h-6.1c-0.55,0-1,0.45-1,1s0.45,1,1,1   h6.54c0.12,0.66,0.22,1.32,0.3,2h-0.91h-54H2.06z M4.82,29h50v2h-50V29z M54.11,44H38.9c-0.55,0-1,0.45-1,1s0.45,1,1,1h13.93   c-0.49,0.69-1,1.36-1.54,2H42.9c-0.55,0-1,0.45-1,1s0.45,1,1,1h6.52c-1.13,1.1-2.34,2.1-3.64,3H37.9c-0.55,0-1,0.45-1,1s0.45,1,1,1   h4.53c-3.79,1.92-8.05,3-12.53,3c-4.48,0-8.74-1.08-12.53-3h2.53c0.55,0,1-0.45,1-1s-0.45-1-1-1h-5.88c-1.29-0.9-2.51-1.9-3.64-3   h9.52c0.55,0,1-0.45,1-1s-0.45-1-1-1H8.51c-0.54-0.64-1.06-1.31-1.54-2h7.93c0.55,0,1-0.45,1-1s-0.45-1-1-1H5.68   c-0.56-0.96-1.06-1.97-1.51-3h8.72c0.55,0,1-0.45,1-1s-0.45-1-1-1H3.4c-0.05-0.14-0.1-0.28-0.14-0.43   c-0.14-0.43-0.27-0.86-0.38-1.29C2.85,37.19,2.82,37.09,2.8,37h13.1c0.55,0,1-0.45,1-1s-0.45-1-1-1H2.36   c-0.12-0.66-0.22-1.32-0.3-2h0.76h54h0.91c-0.07,0.68-0.18,1.34-0.3,2H49.9c-0.55,0-1,0.45-1,1s0.45,1,1,1H57   c-0.03,0.11-0.06,0.22-0.09,0.33c-0.11,0.4-0.23,0.8-0.36,1.2c-0.05,0.16-0.1,0.32-0.16,0.47H45.9c-0.55,0-1,0.45-1,1s0.45,1,1,1   h9.72C55.17,42.03,54.67,43.04,54.11,44z"/><path fill='grey' d="M37.69,7.25c-0.01-0.01-0.01-0.02-0.02-0.03s-0.02-0.01-0.03-0.02C35.66,5.22,32.92,4,29.9,4s-5.76,1.22-7.75,3.2   c-0.01,0.01-0.02,0.01-0.03,0.02s-0.01,0.02-0.02,0.03c-1.98,1.99-3.2,4.73-3.2,7.75s1.22,5.76,3.2,7.75   c0.01,0.01,0.01,0.02,0.02,0.03s0.02,0.01,0.03,0.02c1.99,1.98,4.73,3.2,7.75,3.2s5.76-1.22,7.75-3.2   c0.01-0.01,0.02-0.01,0.03-0.02s0.01-0.02,0.02-0.03c1.98-1.99,3.2-4.73,3.2-7.75S39.67,9.24,37.69,7.25z M36.92,20.61l-2.14-2.14   c0.51-0.72,0.87-1.56,1.02-2.47h3.03C38.64,17.73,37.96,19.32,36.92,20.61z M20.96,16h3.03c0.15,0.91,0.51,1.75,1.02,2.47   l-2.14,2.14C21.84,19.32,21.15,17.73,20.96,16z M22.87,9.39l2.14,2.14c-0.51,0.72-0.87,1.56-1.02,2.47h-3.03   C21.15,12.27,21.84,10.68,22.87,9.39z M29.9,19c-2.21,0-4-1.79-4-4s1.79-4,4-4s4,1.79,4,4S32.1,19,29.9,19z M33.37,10.12   c-0.72-0.51-1.56-0.87-2.47-1.02V6.06c1.73,0.19,3.32,0.88,4.61,1.92L33.37,10.12z M28.9,9.09c-0.91,0.15-1.75,0.51-2.47,1.02   l-2.14-2.14c1.29-1.04,2.88-1.72,4.61-1.92V9.09z M26.43,19.89c0.72,0.51,1.56,0.87,2.47,1.02v3.03c-1.73-0.19-3.32-0.88-4.61-1.92   L26.43,19.89z M30.9,20.91c0.91-0.15,1.75-0.51,2.47-1.02l2.14,2.14c-1.29,1.04-2.88,1.72-4.61,1.92V20.91z M35.81,14   c-0.15-0.91-0.51-1.75-1.02-2.47l2.14-2.14c1.04,1.29,1.72,2.88,1.92,4.61H35.81z"/><circle cx="29.9" cy="15" r="1"/></g><text x="0" y="75" fill="#000000" font-size="5px" font-weight="bold" font-family="'Helvetica Neue', Helvetica, Arial-Unicode, Arial, Sans-serif"></text><text x="0" y="80" fill="#000000" font-size="5px" font-weight="bold" font-family="'Helvetica Neue', Helvetica, Arial-Unicode, Arial, Sans-serif"></text></svg>