<?xml version="1.0" encoding="iso-8859-1"?>
<!-- Generator: Adobe Illustrator 19.0.0, SVG Export Plug-In . SVG Version: 6.00 Build 0)  -->
<svg version="1.1" id="Capa_1" xmlns="http://www.w3.org/2000/svg" xmlns:xlink="http://www.w3.org/1999/xlink" x="0px" y="0px"
	 viewBox="0 0 511.996 511.996" style="enable-background:new 0 0 511.996 511.996;" xml:space="preserve">
<g>
	<g>
		<path d="M275.248,51.684c10.573-9.583,23.417-24.625,23.417-41.021c0-3.438-1.646-6.646-4.427-8.646
			c-2.802-2.021-6.375-2.542-9.615-1.479l-28.635,9.542l-28.615-9.542c-3.26-1.063-6.833-0.542-9.615,1.479
			c-2.781,2-4.427,5.208-4.427,8.646c0,16.292,12.688,31.25,23.448,40.979C44.936,159.35,42.665,303.121,42.665,309.33
			c0,5.896,4.771,10.667,10.667,10.667h10.667V469.33c0,23.521,19.135,42.667,42.667,42.667h298.667
			c23.531,0,42.667-19.146,42.667-42.667V319.996h10.667c5.896,0,10.667-4.771,10.667-10.667
			C469.332,303.1,467.061,158.913,275.248,51.684z M252.613,31.455c2.188,0.708,4.563,0.708,6.75,0l8.802-2.938
			c-3.854,4.417-8.313,8.521-12.115,11.604c-3.938-3.188-8.385-7.25-12.198-11.604L252.613,31.455z M319.998,490.663h-128v-64
			c0-35.292,28.708-64,64-64s64,28.708,64,64V490.663z M426.665,469.33c0,11.771-9.573,21.333-21.333,21.333h-64v-64
			c0-47.063-38.281-85.333-85.333-85.333s-85.333,38.271-85.333,85.333v64h-64c-11.76,0-21.333-9.563-21.333-21.333V319.996h341.333
			V469.33z M64.988,298.663c4.771-34.792,32.354-147.333,190.969-233.271c158.719,85.542,186.292,198.417,191.052,233.271H64.988z"
			/>
	</g>
</g>
<g>
</g>
<g>
</g>
<g>
</g>
<g>
</g>
<g>
</g>
<g>
</g>
<g>
</g>
<g>
</g>
<g>
</g>
<g>
</g>
<g>
</g>
<g>
</g>
<g>
</g>
<g>
</g>
<g>
</g>
</svg>