<svg width='100px' height='100px' xmlns="http://www.w3.org/2000/svg" viewBox="0 0 60 75" x="0px" y="0px"><defs><style>.cls-1{fill:grey;stroke:#000;stroke-linecap:round;stroke-linejoin:round;stroke-width:2px;}</style></defs><title>Movies - Outline - 072 - Tie Fighter</title><path class="cls-1" d="M43,30a13,13,0,1,1-21.684-9.672A12.87123,12.87123,0,0,1,30,17,13.00529,13.00529,0,0,1,43,30Z"/><rect class="cls-1" x="0.99923" y="1" width="4" height="58" rx="2" ry="2" transform="translate(5.99846 60) rotate(180)"/><path class="cls-1" d="M35.65,24.34A7.99108,7.99108,0,1,0,38,30,7.94935,7.94935,0,0,0,35.65,24.34ZM30,34a4,4,0,1,1,0-8,4,4,0,0,1,0,8Z"/><polyline class="cls-1" points="17.35 27 15 27 10.64 27 5 27 5 33 10.64 33 15 33 17.35 33"/><path class="cls-1" d="M37.23,40.8v.01l-2.47,5.24a1.53378,1.53378,0,0,1-1.37.95H26.62a1.53378,1.53378,0,0,1-1.37-.95l-2.47-5.24"/><line class="cls-1" x1="30.02" y1="47" x2="30.01" y2="43"/><line class="cls-1" x1="5" y1="17" x2="15" y2="27"/><line class="cls-1" x1="15" y1="33" x2="5" y2="43"/><rect class="cls-1" x="55" y="1" width="4" height="58" rx="2" ry="2"/><polyline class="cls-1" points="42.65 27 45 27 49.35 27 55 27 55 33 49.35 33 45 33 42.65 33"/><line class="cls-1" x1="54.99923" y1="17" x2="44.99923" y2="27"/><line class="cls-1" x1="44.99923" y1="33" x2="54.99923" y2="43"/><line class="cls-1" x1="35.65" y1="35.66" x2="32.82" y2="32.83"/><line class="cls-1" x1="27.17" y1="27.17" x2="24.34" y2="24.34"/><line class="cls-1" x1="38" y1="30" x2="34" y2="30"/><line class="cls-1" x1="26" y1="30" x2="22" y2="30"/><line class="cls-1" x1="35.65" y1="24.34" x2="32.82" y2="27.17"/><line class="cls-1" x1="27.17" y1="32.83" x2="24.34" y2="35.66"/><text x="0" y="75" fill="#000000" font-size="5px" font-weight="bold" font-family="'Helvetica Neue', Helvetica, Arial-Unicode, Arial, Sans-serif"></text><text x="0" y="80" fill="#000000" font-size="5px" font-weight="bold" font-family="'Helvetica Neue', Helvetica, Arial-Unicode, Arial, Sans-serif"></text></svg>